<mxfile host="app.diagrams.net" modified="2023-08-14T12:10:10.859Z" agent="Mozilla/5.0 (Windows NT 10.0; Win64; x64) AppleWebKit/537.36 (KHTML, like Gecko) Chrome/115.0.0.0 Safari/537.36" etag="5J9BDLaN-xK8ornaLqtN" version="21.6.8" type="device">
  <diagram id="kgpKYQtTHZ0yAKxKKP6v" name="Page-1">
    <mxGraphModel dx="1728" dy="932" grid="1" gridSize="10" guides="1" tooltips="1" connect="1" arrows="1" fold="1" page="1" pageScale="1" pageWidth="850" pageHeight="1100" math="0" shadow="0">
      <root>
        <mxCell id="0" />
        <mxCell id="1" parent="0" />
        <mxCell id="RkgCNi8kKASeo4aPOwPu-42" value="opt" style="shape=umlFrame;whiteSpace=wrap;html=1;rounded=0;shadow=0;glass=0;sketch=0;" parent="1" vertex="1">
          <mxGeometry x="200" y="200" width="420" height="580" as="geometry" />
        </mxCell>
        <mxCell id="3nuBFxr9cyL0pnOWT2aG-1" value="Indicator" style="shape=umlLifeline;perimeter=lifelinePerimeter;container=1;collapsible=0;recursiveResize=0;rounded=0;shadow=0;strokeWidth=1;glass=0;sketch=0;size=40;" parent="1" vertex="1">
          <mxGeometry x="375" y="240" width="100" height="600" as="geometry" />
        </mxCell>
        <mxCell id="3nuBFxr9cyL0pnOWT2aG-2" value="" style="points=[];perimeter=orthogonalPerimeter;rounded=0;shadow=0;strokeWidth=1;" parent="3nuBFxr9cyL0pnOWT2aG-1" vertex="1">
          <mxGeometry x="45" y="110" width="10" height="60" as="geometry" />
        </mxCell>
        <mxCell id="RkgCNi8kKASeo4aPOwPu-27" value="" style="points=[];perimeter=orthogonalPerimeter;rounded=0;shadow=0;strokeWidth=1;" parent="3nuBFxr9cyL0pnOWT2aG-1" vertex="1">
          <mxGeometry x="45" y="350" width="10" height="60" as="geometry" />
        </mxCell>
        <mxCell id="RkgCNi8kKASeo4aPOwPu-25" value="" style="points=[];perimeter=orthogonalPerimeter;rounded=0;shadow=0;strokeWidth=1;" parent="3nuBFxr9cyL0pnOWT2aG-1" vertex="1">
          <mxGeometry x="45" y="230" width="10" height="60" as="geometry" />
        </mxCell>
        <mxCell id="RkgCNi8kKASeo4aPOwPu-11" style="edgeStyle=orthogonalEdgeStyle;rounded=0;orthogonalLoop=1;jettySize=auto;html=1;endArrow=none;endFill=0;dashed=1;" parent="1" source="RkgCNi8kKASeo4aPOwPu-12" edge="1">
          <mxGeometry relative="1" as="geometry">
            <mxPoint x="40" y="840" as="targetPoint" />
            <Array as="points">
              <mxPoint x="40" y="580" />
            </Array>
          </mxGeometry>
        </mxCell>
        <mxCell id="RkgCNi8kKASeo4aPOwPu-5" value="" style="shape=umlActor;verticalLabelPosition=bottom;verticalAlign=top;html=1;outlineConnect=0;rounded=0;shadow=0;glass=0;sketch=0;" parent="1" vertex="1">
          <mxGeometry x="30" y="80" width="20" height="40" as="geometry" />
        </mxCell>
        <mxCell id="RkgCNi8kKASeo4aPOwPu-19" style="edgeStyle=orthogonalEdgeStyle;rounded=0;orthogonalLoop=1;jettySize=auto;html=1;entryX=0.5;entryY=0;entryDx=0;entryDy=0;entryPerimeter=0;dashed=1;endArrow=none;endFill=0;" parent="1" source="RkgCNi8kKASeo4aPOwPu-6" target="RkgCNi8kKASeo4aPOwPu-18" edge="1">
          <mxGeometry relative="1" as="geometry" />
        </mxCell>
        <mxCell id="RkgCNi8kKASeo4aPOwPu-6" value="oqt.py" style="ellipse;shape=umlControl;whiteSpace=wrap;html=1;rounded=0;shadow=0;glass=0;sketch=0;" parent="1" vertex="1">
          <mxGeometry x="270" y="80" width="40" height="40" as="geometry" />
        </mxCell>
        <mxCell id="RkgCNi8kKASeo4aPOwPu-14" style="edgeStyle=orthogonalEdgeStyle;rounded=0;orthogonalLoop=1;jettySize=auto;html=1;dashed=1;endArrow=none;endFill=0;" parent="1" source="RkgCNi8kKASeo4aPOwPu-15" edge="1">
          <mxGeometry relative="1" as="geometry">
            <mxPoint x="165" y="840" as="targetPoint" />
            <Array as="points">
              <mxPoint x="165" y="790" />
            </Array>
          </mxGeometry>
        </mxCell>
        <mxCell id="RkgCNi8kKASeo4aPOwPu-7" value="API" style="shape=umlBoundary;whiteSpace=wrap;html=1;rounded=0;shadow=0;glass=0;sketch=0;" parent="1" vertex="1">
          <mxGeometry x="140" y="80" width="50" height="40" as="geometry" />
        </mxCell>
        <mxCell id="RkgCNi8kKASeo4aPOwPu-8" value="ohsomeAPI" style="shape=umlLifeline;perimeter=lifelinePerimeter;container=1;collapsible=0;recursiveResize=0;rounded=0;shadow=0;strokeWidth=1;glass=0;sketch=0;" parent="1" vertex="1">
          <mxGeometry x="500" y="80" width="100" height="760" as="geometry" />
        </mxCell>
        <mxCell id="RkgCNi8kKASeo4aPOwPu-9" value="" style="points=[];perimeter=orthogonalPerimeter;rounded=0;shadow=0;strokeWidth=1;" parent="RkgCNi8kKASeo4aPOwPu-8" vertex="1">
          <mxGeometry x="45" y="285" width="10" height="20" as="geometry" />
        </mxCell>
        <mxCell id="RkgCNi8kKASeo4aPOwPu-20" value="&lt;div&gt;create_indicator&lt;/div&gt;" style="edgeStyle=orthogonalEdgeStyle;rounded=0;orthogonalLoop=1;jettySize=auto;html=1;endArrow=classic;endFill=1;entryX=-0.2;entryY=0.004;entryDx=0;entryDy=0;entryPerimeter=0;" parent="1" source="RkgCNi8kKASeo4aPOwPu-12" target="RkgCNi8kKASeo4aPOwPu-15" edge="1">
          <mxGeometry x="-0.0266" y="12" relative="1" as="geometry">
            <mxPoint x="170" y="183" as="targetPoint" />
            <Array as="points">
              <mxPoint x="100" y="182" />
              <mxPoint x="100" y="182" />
            </Array>
            <mxPoint as="offset" />
          </mxGeometry>
        </mxCell>
        <mxCell id="RkgCNi8kKASeo4aPOwPu-12" value="" style="points=[];perimeter=orthogonalPerimeter;rounded=0;shadow=0;strokeWidth=1;" parent="1" vertex="1">
          <mxGeometry x="35" y="170" width="10" height="560" as="geometry" />
        </mxCell>
        <mxCell id="RkgCNi8kKASeo4aPOwPu-13" style="edgeStyle=orthogonalEdgeStyle;rounded=0;orthogonalLoop=1;jettySize=auto;html=1;endArrow=none;endFill=0;dashed=1;" parent="1" source="RkgCNi8kKASeo4aPOwPu-5" target="RkgCNi8kKASeo4aPOwPu-12" edge="1">
          <mxGeometry relative="1" as="geometry">
            <mxPoint x="40" y="650" as="targetPoint" />
            <mxPoint x="40" y="120" as="sourcePoint" />
            <Array as="points" />
          </mxGeometry>
        </mxCell>
        <mxCell id="RkgCNi8kKASeo4aPOwPu-22" value="create_indicator" style="edgeStyle=orthogonalEdgeStyle;rounded=0;orthogonalLoop=1;jettySize=auto;html=1;endArrow=classic;endFill=1;entryX=0;entryY=0.004;entryDx=0;entryDy=0;entryPerimeter=0;" parent="1" source="RkgCNi8kKASeo4aPOwPu-15" target="RkgCNi8kKASeo4aPOwPu-18" edge="1">
          <mxGeometry x="0.0435" y="12" relative="1" as="geometry">
            <mxPoint x="290" y="460" as="targetPoint" />
            <Array as="points">
              <mxPoint x="230" y="192" />
              <mxPoint x="230" y="192" />
            </Array>
            <mxPoint as="offset" />
          </mxGeometry>
        </mxCell>
        <mxCell id="RkgCNi8kKASeo4aPOwPu-15" value="" style="points=[];perimeter=orthogonalPerimeter;rounded=0;shadow=0;strokeWidth=1;" parent="1" vertex="1">
          <mxGeometry x="160" y="180" width="10" height="530" as="geometry" />
        </mxCell>
        <mxCell id="RkgCNi8kKASeo4aPOwPu-16" style="edgeStyle=orthogonalEdgeStyle;rounded=0;orthogonalLoop=1;jettySize=auto;html=1;dashed=1;endArrow=none;endFill=0;" parent="1" source="RkgCNi8kKASeo4aPOwPu-7" target="RkgCNi8kKASeo4aPOwPu-15" edge="1">
          <mxGeometry relative="1" as="geometry">
            <mxPoint x="180" y="790" as="targetPoint" />
            <mxPoint x="170" y="120" as="sourcePoint" />
            <Array as="points" />
          </mxGeometry>
        </mxCell>
        <mxCell id="RkgCNi8kKASeo4aPOwPu-17" style="edgeStyle=orthogonalEdgeStyle;rounded=0;orthogonalLoop=1;jettySize=auto;html=1;dashed=1;endArrow=none;endFill=0;" parent="1" source="RkgCNi8kKASeo4aPOwPu-18" edge="1">
          <mxGeometry relative="1" as="geometry">
            <mxPoint x="290" y="835" as="targetPoint" />
            <Array as="points">
              <mxPoint x="290" y="835" />
            </Array>
          </mxGeometry>
        </mxCell>
        <mxCell id="RkgCNi8kKASeo4aPOwPu-33" value="Indicator" style="edgeStyle=orthogonalEdgeStyle;rounded=0;orthogonalLoop=1;jettySize=auto;html=1;endArrow=classic;endFill=1;dashed=1;" parent="1" edge="1">
          <mxGeometry x="-0.0185" y="-16" relative="1" as="geometry">
            <mxPoint x="172" y="680" as="targetPoint" />
            <Array as="points">
              <mxPoint x="172" y="680" />
            </Array>
            <mxPoint as="offset" />
            <mxPoint x="288" y="680.0000000000002" as="sourcePoint" />
          </mxGeometry>
        </mxCell>
        <mxCell id="RkgCNi8kKASeo4aPOwPu-18" value="" style="points=[];perimeter=orthogonalPerimeter;rounded=0;shadow=0;strokeWidth=1;" parent="1" vertex="1">
          <mxGeometry x="285" y="190" width="10" height="590" as="geometry" />
        </mxCell>
        <mxCell id="RkgCNi8kKASeo4aPOwPu-23" value="preprocess" style="edgeStyle=orthogonalEdgeStyle;rounded=0;orthogonalLoop=1;jettySize=auto;html=1;endArrow=classic;endFill=1;entryX=0.47;entryY=0.169;entryDx=0;entryDy=0;entryPerimeter=0;" parent="1" edge="1">
          <mxGeometry x="0.0083" y="7" relative="1" as="geometry">
            <mxPoint x="422" y="356.68000000000006" as="targetPoint" />
            <mxPoint x="297" y="357" as="sourcePoint" />
            <Array as="points">
              <mxPoint x="297" y="357" />
            </Array>
            <mxPoint as="offset" />
          </mxGeometry>
        </mxCell>
        <mxCell id="RkgCNi8kKASeo4aPOwPu-24" value="calculate" style="edgeStyle=orthogonalEdgeStyle;rounded=0;orthogonalLoop=1;jettySize=auto;html=1;endArrow=classic;endFill=1;entryX=-0.1;entryY=0.017;entryDx=0;entryDy=0;entryPerimeter=0;" parent="1" target="RkgCNi8kKASeo4aPOwPu-25" edge="1">
          <mxGeometry x="0.2075" y="11" relative="1" as="geometry">
            <mxPoint x="459" y="494" as="targetPoint" />
            <mxPoint x="295" y="496" as="sourcePoint" />
            <Array as="points">
              <mxPoint x="295" y="471" />
            </Array>
            <mxPoint as="offset" />
          </mxGeometry>
        </mxCell>
        <mxCell id="RkgCNi8kKASeo4aPOwPu-29" value="&amp;lt;&amp;lt;create&amp;gt;&amp;gt;" style="edgeStyle=orthogonalEdgeStyle;rounded=0;orthogonalLoop=1;jettySize=auto;html=1;endArrow=classic;endFill=1;exitX=1.4;exitY=0.107;exitDx=0;exitDy=0;exitPerimeter=0;entryX=0.01;entryY=0.032;entryDx=0;entryDy=0;entryPerimeter=0;" parent="1" source="RkgCNi8kKASeo4aPOwPu-18" edge="1">
          <mxGeometry x="-0.0532" y="-8" relative="1" as="geometry">
            <mxPoint x="376" y="258.03999999999996" as="targetPoint" />
            <mxPoint x="385" y="245" as="sourcePoint" />
            <Array as="points">
              <mxPoint x="299" y="258" />
            </Array>
            <mxPoint x="1" y="-16" as="offset" />
          </mxGeometry>
        </mxCell>
        <mxCell id="RkgCNi8kKASeo4aPOwPu-26" value="create_figure" style="edgeStyle=orthogonalEdgeStyle;rounded=0;orthogonalLoop=1;jettySize=auto;html=1;endArrow=classic;endFill=1;entryX=0;entryY=0;entryDx=0;entryDy=0;entryPerimeter=0;" parent="1" target="RkgCNi8kKASeo4aPOwPu-27" edge="1">
          <mxGeometry x="0.04" y="10" relative="1" as="geometry">
            <mxPoint x="420" y="675" as="targetPoint" />
            <mxPoint x="295" y="590" as="sourcePoint" />
            <Array as="points">
              <mxPoint x="295" y="590" />
            </Array>
            <mxPoint as="offset" />
          </mxGeometry>
        </mxCell>
        <mxCell id="RkgCNi8kKASeo4aPOwPu-32" value="query" style="edgeStyle=orthogonalEdgeStyle;rounded=0;orthogonalLoop=1;jettySize=auto;html=1;endArrow=classic;endFill=1;entryX=0.1;entryY=0.1;entryDx=0;entryDy=0;entryPerimeter=0;" parent="1" target="RkgCNi8kKASeo4aPOwPu-9" edge="1">
          <mxGeometry x="0.0088" y="12" relative="1" as="geometry">
            <mxPoint x="788" y="455" as="targetPoint" />
            <mxPoint x="433" y="367" as="sourcePoint" />
            <Array as="points">
              <mxPoint x="460" y="367" />
              <mxPoint x="460" y="367" />
            </Array>
            <mxPoint as="offset" />
          </mxGeometry>
        </mxCell>
        <mxCell id="RkgCNi8kKASeo4aPOwPu-35" value="result" style="edgeStyle=orthogonalEdgeStyle;rounded=0;orthogonalLoop=1;jettySize=auto;html=1;entryX=0.9;entryY=0.978;entryDx=0;entryDy=0;entryPerimeter=0;endArrow=classic;endFill=1;dashed=1;" parent="1" edge="1">
          <mxGeometry x="-0.0345" y="-10" relative="1" as="geometry">
            <mxPoint x="546" y="384.99999999999994" as="sourcePoint" />
            <mxPoint x="430" y="384.99999999999994" as="targetPoint" />
            <Array as="points">
              <mxPoint x="521" y="384.2" />
            </Array>
            <mxPoint as="offset" />
          </mxGeometry>
        </mxCell>
        <mxCell id="RkgCNi8kKASeo4aPOwPu-44" value="if feature != None" style="text;html=1;align=center;verticalAlign=middle;whiteSpace=wrap;rounded=0;shadow=0;glass=0;sketch=0;fillColor=#ffffff;" parent="1" vertex="1">
          <mxGeometry x="270" y="200" width="130" height="20" as="geometry" />
        </mxCell>
        <mxCell id="RkgCNi8kKASeo4aPOwPu-45" value="" style="endArrow=none;dashed=1;html=1;dashPattern=1 3;strokeWidth=2;exitX=0.003;exitY=0.868;exitDx=0;exitDy=0;exitPerimeter=0;entryX=1.005;entryY=0.867;entryDx=0;entryDy=0;entryPerimeter=0;" parent="1" source="RkgCNi8kKASeo4aPOwPu-42" target="RkgCNi8kKASeo4aPOwPu-42" edge="1">
          <mxGeometry width="50" height="50" relative="1" as="geometry">
            <mxPoint x="325" y="740" as="sourcePoint" />
            <mxPoint x="375" y="690" as="targetPoint" />
          </mxGeometry>
        </mxCell>
        <mxCell id="RkgCNi8kKASeo4aPOwPu-46" value="else: TBD" style="text;html=1;align=center;verticalAlign=middle;whiteSpace=wrap;rounded=0;shadow=0;glass=0;sketch=0;fillColor=#ffffff;" parent="1" vertex="1">
          <mxGeometry x="210" y="720" width="40" height="20" as="geometry" />
        </mxCell>
        <mxCell id="RkgCNi8kKASeo4aPOwPu-49" value="&lt;div&gt;Indicator.Result/&lt;/div&gt;&lt;div&gt;Indicator.Metadata&lt;br&gt;&lt;/div&gt;" style="edgeStyle=orthogonalEdgeStyle;rounded=0;orthogonalLoop=1;jettySize=auto;html=1;endArrow=classic;endFill=1;dashed=1;" parent="1" edge="1">
          <mxGeometry x="-0.0185" y="-16" relative="1" as="geometry">
            <mxPoint x="161" y="710" as="sourcePoint" />
            <mxPoint x="45" y="710" as="targetPoint" />
            <Array as="points">
              <mxPoint x="45" y="710" />
            </Array>
            <mxPoint as="offset" />
          </mxGeometry>
        </mxCell>
      </root>
    </mxGraphModel>
  </diagram>
</mxfile>
